<svg width="59" height="60" viewBox="0 0 59 60" fill="none" xmlns="http://www.w3.org/2000/svg">
<path d="M7.50985 10.7497L11.8713 15.1768C21.5288 5.37379 37.4169 5.37379 47.0744 15.1768L51.4359 10.7497C39.5977 -1.58322 19.6596 -1.58322 7.50985 10.7497ZM16.5443 19.9202L20.9057 24.3474C25.8902 19.2878 33.6785 19.2878 38.6631 24.3474L43.0245 19.9202C35.5477 12.3308 23.7095 12.3308 16.5443 19.9202ZM29.0056 39.5264C26.5133 32.2531 18.4135 28.1422 11.2482 30.9882C4.083 33.8343 -0.278446 41.7399 2.52534 49.0132C5.32913 56.2864 13.1174 60.3974 20.2827 57.5513C24.3326 55.9702 27.4479 52.8079 28.694 49.0132H38.9746V58.5H48.3205V49.0132H57.6665V39.5264M15.6097 49.0132C13.1174 49.0132 10.9367 46.7996 10.9367 44.2698C10.9367 41.7399 13.1174 39.5264 15.6097 39.5264C18.1019 39.5264 20.2827 41.7399 20.2827 44.2698C20.2827 46.7996 18.1019 49.0132 15.6097 49.0132Z" stroke="#402F9E" stroke-width="1.5"/>
</svg>
