<svg width="32" height="32" viewBox="0 0 32 32" fill="none" xmlns="http://www.w3.org/2000/svg">
<path d="M15.8484 11.291L11.3531 19.0772C11.0334 19.6517 10.9524 20.3289 11.1276 20.9627C11.3028 21.5964 11.7201 22.1359 12.2895 22.4646C12.859 22.7934 13.5348 22.8851 14.1713 22.7199C14.8077 22.5548 15.3537 22.146 15.6914 21.5818L21.5906 11.3803C21.8775 10.8971 22.0656 10.3617 22.144 9.80528C22.2224 9.24882 22.1896 8.68233 22.0474 8.13864C21.9053 7.59496 21.6566 7.0849 21.3159 6.63803C20.9751 6.19116 20.5491 5.81637 20.0624 5.53539C19.5757 5.25441 19.0381 5.07283 18.4807 5.00117C17.9234 4.92951 17.3573 4.96919 16.8154 5.11793C16.2735 5.26667 15.7665 5.52149 15.3238 5.86763C14.8811 6.21378 14.5115 6.64435 14.2364 7.1344L8.30455 17.4087C7.89909 18.0881 7.63272 18.8413 7.52095 19.6245C7.40917 20.4078 7.45421 21.2054 7.65345 21.9711C7.85268 22.7368 8.20215 23.4552 8.68151 24.0847C9.16088 24.7141 9.76058 25.2419 10.4458 25.6375C11.1309 26.0331 11.8879 26.2885 12.6727 26.389C13.4575 26.4894 14.2544 26.4328 15.0171 26.2225C15.7798 26.0122 16.4931 25.6524 17.1156 25.164C17.738 24.6756 18.2571 24.0683 18.6427 23.3775L24.1859 13.7765" stroke="#E0E0E0" stroke-width="1.5" stroke-miterlimit="10" stroke-linecap="round"/>
</svg>
