<svg width="60" height="60" viewBox="0 0 60 60" fill="none" xmlns="http://www.w3.org/2000/svg">
<g id="wpf:bank-cards">
<path id="Vector" d="M21.4883 28.7305H50.7334C53.7839 28.7306 56.25 31.1864 56.25 34.1992V50.7812C56.25 53.7941 53.7839 56.2499 50.7334 56.25H21.4883C18.4377 56.25 15.9707 53.7942 15.9707 50.7812V34.1992C15.9707 31.1863 18.4377 28.7305 21.4883 28.7305ZM38.4814 4.75293C39.6736 4.70732 40.8444 5.04648 41.8232 5.71387L42.0166 5.85156C43.0313 6.60905 43.7507 7.68967 44.0557 8.91016V8.91113L47.7451 23.9834H22.3926C18.7099 23.9835 15.8665 24.8154 13.9531 26.7139C12.0385 28.6137 11.1983 31.4388 11.1982 35.0967V37.7568C10.7902 37.4902 10.4174 37.172 10.0928 36.8057C9.51341 36.1518 9.10055 35.3701 8.88867 34.5264H8.8877L4.90723 18.3994V18.3984C4.1854 15.4803 6.02242 12.5154 8.99023 11.793L8.99121 11.7939L37.3887 4.92871L37.3916 4.92773C37.7856 4.83048 38.1347 4.76773 38.4824 4.75391L38.4814 4.75293Z" stroke="#402F9E" stroke-width="1.5"/>
</g>
</svg>
