<svg width="38" height="52" viewBox="0 0 38 52" fill="none" xmlns="http://www.w3.org/2000/svg">
<path fill-rule="evenodd" clip-rule="evenodd" d="M20.54 1.52999L35.2325 12.55C35.574 12.8061 35.8512 13.1383 36.0422 13.5202C36.2331 13.902 36.3325 14.3231 36.3325 14.75C36.3325 15.1769 36.2331 15.598 36.0422 15.9798C35.8512 16.3617 35.574 16.6938 35.2325 16.95L23.1675 26L35.2325 35.05C35.574 35.3061 35.8512 35.6383 36.0422 36.0202C36.2331 36.402 36.3325 36.8231 36.3325 37.25C36.3325 37.6769 36.2331 38.098 36.0422 38.4798C35.8512 38.8617 35.574 39.1938 35.2325 39.45L20.54 50.47C20.1649 50.7513 19.7188 50.9227 19.2518 50.9648C18.7847 51.0069 18.3152 50.9181 17.8958 50.7084C17.4764 50.4987 17.1236 50.1764 16.8771 49.7775C16.6306 49.3786 16.5 48.9189 16.5 48.45V31L5.5 39.25C5.23736 39.447 4.93849 39.5903 4.62045 39.6718C4.30242 39.7533 3.97145 39.7713 3.64645 39.7249C3.32144 39.6784 3.00876 39.5684 2.72627 39.4012C2.44377 39.2339 2.19698 39.0126 2 38.75C1.80302 38.4873 1.6597 38.1885 1.57822 37.8704C1.49674 37.5524 1.4787 37.2214 1.52513 36.8964C1.57156 36.5714 1.68154 36.2588 1.84881 35.9763C2.01608 35.6938 2.23736 35.447 2.5 35.25L14.8325 26L2.5 16.75C2.23736 16.553 2.01608 16.3062 1.84881 16.0237C1.68154 15.7412 1.57156 15.4286 1.52513 15.1035C1.4787 14.7785 1.49674 14.4476 1.57822 14.1295C1.6597 13.8115 1.80302 13.5126 2 13.25C2.19698 12.9874 2.44377 12.7661 2.72627 12.5988C3.00876 12.4315 3.32144 12.3215 3.64645 12.2751C3.97145 12.2287 4.30242 12.2467 4.62045 12.3282C4.93849 12.4097 5.23736 12.553 5.5 12.75L16.5 21V3.54999C16.5 1.46999 18.875 0.282493 20.54 1.52999ZM21.5 31V43.5L29.8325 37.25L21.5 31ZM21.5 8.49999V21L29.8325 14.75L21.5 8.49999Z" stroke="#402F9E" stroke-width="1.5"/>
</svg>
