<svg width="13" height="14" viewBox="0 0 13 14" fill="none" xmlns="http://www.w3.org/2000/svg">
<path fill-rule="evenodd" clip-rule="evenodd" d="M0.541504 7.00008C0.541504 3.70946 3.20921 1.04175 6.49984 1.04175C9.79046 1.04175 12.4582 3.70946 12.4582 7.00008C12.4582 10.2907 9.79046 12.9584 6.49984 12.9584C3.20921 12.9584 0.541504 10.2907 0.541504 7.00008ZM6.49984 11.8751C5.85964 11.8751 5.22572 11.749 4.63426 11.504C4.04279 11.259 3.50538 10.8999 3.05269 10.4472C2.60001 9.99454 2.24092 9.45712 1.99592 8.86566C1.75093 8.2742 1.62484 7.64028 1.62484 7.00008C1.62484 6.35989 1.75093 5.72596 1.99592 5.1345C2.24092 4.54304 2.60001 4.00562 3.05269 3.55294C3.50538 3.10025 4.04279 2.74116 4.63426 2.49617C5.22572 2.25118 5.85964 2.12508 6.49984 2.12508C7.79277 2.12508 9.03274 2.6387 9.94698 3.55294C10.8612 4.46718 11.3748 5.70715 11.3748 7.00008C11.3748 8.29301 10.8612 9.53299 9.94698 10.4472C9.03274 11.3615 7.79277 11.8751 6.49984 11.8751Z" fill="#FF8921"/>
<path d="M7.31171 6.99992L8.663 8.35121L7.85146 9.16276L6.50016 7.81146L5.14504 9.16659L4.3335 8.35504L5.68862 6.99992L4.3335 5.64479L5.14504 4.83325L6.50016 6.18838L7.85529 4.83708L8.66683 5.64862L7.31171 6.99992Z" fill="#FF8921"/>
</svg>
