<svg width="40" height="60" viewBox="0 0 40 60" fill="none" xmlns="http://www.w3.org/2000/svg">
<path id="Vector" d="M20.0353 1C28.6627 1 35.7242 7.97994 35.7242 16.5078V31.108C37.4819 33.9036 38.5 37.1958 38.5 40.7135C38.4998 50.776 30.1799 59 19.9999 59C9.81992 59 1.5 50.776 1.5 40.7137C1.5 30.651 9.81992 22.4274 19.9999 22.4274C23.4435 22.4274 26.6734 23.3695 29.4411 25.0044V16.5078C29.4411 11.3361 25.2671 7.21053 20.0353 7.21053C14.8037 7.21053 10.6298 11.3361 10.6298 16.5078V18.6257H4.34677V16.5078C4.34677 7.97976 11.4079 1 20.0353 1ZM19.9999 28.6377C13.2155 28.6377 7.78307 34.0076 7.78307 40.7135C7.78307 47.4198 13.2155 52.7893 19.9999 52.7893C26.7843 52.7893 32.2167 47.4196 32.2167 40.7135C32.2167 34.0074 26.7843 28.6377 19.9999 28.6377ZM20.0601 35.6452C22.9228 35.6452 25.2438 37.9391 25.2438 40.7688C25.2438 43.5985 22.9228 45.8927 20.0601 45.8927C17.1973 45.8927 14.8768 43.5985 14.8768 40.7688C14.8768 37.9391 17.1973 35.6452 20.0601 35.6452Z" stroke="#402F9E" stroke-width="1.5"/>
</svg>
