<svg width="60" height="60" viewBox="0 0 60 60" fill="none" xmlns="http://www.w3.org/2000/svg">
<path d="M50 5.75C51.1009 5.75 52.0374 6.11006 52.8428 6.84766L53.002 7C53.7899 7.78798 54.1983 8.7042 54.2451 9.78125L54.25 9.99902V18.374L54.7881 18.5322C55.2521 18.6687 55.6629 18.9366 56.0225 19.3682L56.1738 19.5635C56.5212 20.046 56.7031 20.5325 56.7422 21.0332L56.75 21.248V26.25C56.75 26.7554 56.6114 27.2453 56.3105 27.7295L56.1709 27.9365C55.7765 28.4843 55.3165 28.8119 54.7881 28.9678L54.25 29.127V50C54.25 51.1014 53.8907 52.0384 53.1543 52.8438L53.002 53.0029C52.2159 53.7903 51.2993 54.1984 50.2188 54.2451L50.001 54.25H30C28.8987 54.25 27.9629 53.8904 27.1592 53.1543L27 53.002C26.214 52.2158 25.8042 51.2989 25.7549 50.2178L25.75 49.999V47.373L43.123 30L25.75 12.627V10C25.75 8.89914 26.1104 7.96391 26.8477 7.16016L27 7.00098C27.7884 6.21393 28.705 5.80414 29.7832 5.75488L30.001 5.75H50ZM33.9395 30L25 38.9395L22.5557 36.4951L25.9717 33.0264L27.2285 31.75H5.75V28.25H27.2285L25.9717 26.9736L22.5557 23.5039L25 21.0605L33.9395 30Z" stroke="#402F9E" stroke-width="1.5"/>
</svg>
