<svg width="61" height="60" viewBox="0 0 61 60" fill="none" xmlns="http://www.w3.org/2000/svg">
<path d="M21.1045 0.75H40.2295C43.9149 0.75 46.917 3.76828 46.917 7.5V52.5C46.917 54.1804 46.2963 55.7952 45.1846 57.0332L44.9561 57.2754C43.7014 58.5405 42.001 59.25 40.2295 59.25H21.1045C19.4436 59.25 17.8453 58.6263 16.6182 57.5059L16.3779 57.2754C15.1231 56.01 14.417 54.2922 14.417 52.5V7.5C14.417 3.76828 17.4191 0.75 21.1045 0.75ZM26.417 46.3926C25.6525 46.3926 24.9205 46.699 24.3818 47.2422C23.8434 47.7852 23.542 48.5209 23.542 49.2861C23.5421 49.9557 23.7729 50.6023 24.1914 51.1172L24.3818 51.3291C24.9205 51.8723 25.6525 52.1787 26.417 52.1787H34.917C35.5859 52.1787 36.2298 51.944 36.7412 51.5215L36.9521 51.3291C37.4905 50.7862 37.7919 50.0512 37.792 49.2861C37.792 48.5209 37.4906 47.7852 36.9521 47.2422C36.4135 46.699 35.6815 46.3926 34.917 46.3926H26.417Z" stroke="#402F9E" stroke-width="1.5"/>
</svg>
