<svg width="25" height="24" viewBox="0 0 25 24" fill="none" xmlns="http://www.w3.org/2000/svg">
<path d="M2.67003 9.76854C5.23541 15.3573 9.79286 19.7868 15.4504 22.1903L16.3589 22.5954C17.3649 23.0436 18.4968 23.1222 19.5551 22.8173C20.6134 22.5123 21.5301 21.8434 22.1438 20.9284L23.3315 19.1584C23.5174 18.8808 23.5926 18.5437 23.5424 18.2133C23.4922 17.883 23.3202 17.5835 23.0603 17.3737L19.0362 14.1253C18.8961 14.0122 18.7346 13.9286 18.5613 13.8796C18.3881 13.8306 18.2068 13.8171 18.0282 13.8399C17.8497 13.8628 17.6775 13.9215 17.5222 14.0126C17.3669 14.1037 17.2316 14.2252 17.1244 14.3699L15.8792 16.0503C12.683 14.4707 10.0958 11.8815 8.51777 8.68304L10.1958 7.43712C10.3404 7.32985 10.4619 7.19445 10.5529 7.03904C10.6439 6.88363 10.7026 6.71142 10.7254 6.53275C10.7483 6.35408 10.7348 6.17263 10.6858 5.9993C10.6368 5.82598 10.5533 5.66435 10.4403 5.52412L7.19378 1.4976C6.98416 1.23753 6.6848 1.06542 6.35468 1.0152C6.02456 0.964968 5.68761 1.04025 5.4102 1.22623L3.62929 2.42135C2.70931 3.03867 2.03821 3.96273 1.73555 5.02891C1.4329 6.0951 1.51833 7.23418 1.97664 8.24322L2.67003 9.76854Z" stroke="white" stroke-width="1.5"/>
</svg>
