<svg width="22" height="23" viewBox="0 0 22 23" fill="none" xmlns="http://www.w3.org/2000/svg">
<path d="M9.243 15.7895L5 11.5455L6.414 10.1315L9.243 12.9595L14.899 7.30249L16.314 8.71749L9.243 15.7895Z" fill="#402F9E"/>
<path fill-rule="evenodd" clip-rule="evenodd" d="M0 11.4756C0 5.40059 4.925 0.475586 11 0.475586C17.075 0.475586 22 5.40059 22 11.4756C22 17.5506 17.075 22.4756 11 22.4756C4.925 22.4756 0 17.5506 0 11.4756ZM11 20.4756C9.8181 20.4756 8.64778 20.2428 7.55585 19.7905C6.46392 19.3382 5.47177 18.6753 4.63604 17.8395C3.80031 17.0038 3.13738 16.0117 2.68508 14.9197C2.23279 13.8278 2 12.6575 2 11.4756C2 10.2937 2.23279 9.12337 2.68508 8.03144C3.13738 6.9395 3.80031 5.94735 4.63604 5.11162C5.47177 4.2759 6.46392 3.61296 7.55585 3.16067C8.64778 2.70838 9.8181 2.47559 11 2.47559C13.3869 2.47559 15.6761 3.4238 17.364 5.11162C19.0518 6.79945 20 9.08864 20 11.4756C20 13.8625 19.0518 16.1517 17.364 17.8395C15.6761 19.5274 13.3869 20.4756 11 20.4756Z" fill="#402F9E"/>
</svg>
