<svg width="34" height="34" viewBox="0 0 34 34" fill="none" xmlns="http://www.w3.org/2000/svg">
<path fill-rule="evenodd" clip-rule="evenodd" d="M1.41699 17C1.41699 8.39371 8.39408 1.41663 17.0003 1.41663C25.6066 1.41663 32.5837 8.39371 32.5837 17C32.5837 25.6062 25.6066 32.5833 17.0003 32.5833C8.39408 32.5833 1.41699 25.6062 1.41699 17ZM17.0003 29.75C15.326 29.75 13.668 29.4202 12.1211 28.7794C10.5742 28.1387 9.16866 27.1995 7.98471 26.0156C6.80077 24.8316 5.86161 23.4261 5.22086 21.8792C4.58011 20.3323 4.25033 18.6743 4.25033 17C4.25033 15.3256 4.58011 13.6676 5.22086 12.1207C5.86161 10.5738 6.80077 9.16829 7.98471 7.98435C9.16866 6.8004 10.5742 5.86124 12.1211 5.2205C13.668 4.57975 15.326 4.24996 17.0003 4.24996C20.3818 4.24996 23.6248 5.59326 26.0159 7.98435C28.407 10.3754 29.7503 13.6184 29.7503 17C29.7503 20.3815 28.407 23.6245 26.0159 26.0156C23.6248 28.4067 20.3818 29.75 17.0003 29.75Z" fill="#949494"/>
<path d="M19.1222 17L22.6563 20.5342L20.5338 22.6567L16.9997 19.1225L13.4555 22.6667L11.333 20.5442L14.8772 17L11.333 13.4559L13.4555 11.3334L16.9997 14.8775L20.5438 11.3434L22.6663 13.4659L19.1222 17Z" fill="#949494"/>
</svg>
