<svg width="32" height="32" viewBox="0 0 32 32" fill="none" xmlns="http://www.w3.org/2000/svg">
<path d="M13.5109 22.1115L7.5 16.0992L9.50317 14.096L13.5109 18.1023L21.5236 10.0883L23.5282 12.0928L13.5109 22.1115Z" fill="#402F9E"/>
<path fill-rule="evenodd" clip-rule="evenodd" d="M0.416992 16C0.416992 7.39377 7.39408 0.416687 16.0003 0.416687C24.6066 0.416687 31.5837 7.39377 31.5837 16C31.5837 24.6063 24.6066 31.5834 16.0003 31.5834C7.39408 31.5834 0.416992 24.6063 0.416992 16ZM16.0003 28.75C14.326 28.75 12.668 28.4202 11.1211 27.7795C9.57421 27.1387 8.16866 26.1996 6.98471 25.0156C5.80077 23.8317 4.86161 22.4261 4.22086 20.8792C3.58011 19.3323 3.25033 17.6744 3.25033 16C3.25033 14.3257 3.58011 12.6677 4.22086 11.1208C4.86161 9.5739 5.80077 8.16836 6.98471 6.98441C8.16866 5.80046 9.57421 4.8613 11.1211 4.22056C12.668 3.57981 14.326 3.25002 16.0003 3.25002C19.3818 3.25002 22.6248 4.59332 25.0159 6.98441C27.407 9.3755 28.7503 12.6185 28.7503 16C28.7503 19.3815 27.407 22.6245 25.0159 25.0156C22.6248 27.4067 19.3818 28.75 16.0003 28.75Z" fill="#402F9E"/>
</svg>
