<svg width="60" height="60" viewBox="0 0 60 60" fill="none" xmlns="http://www.w3.org/2000/svg">
<g id="fluent:payment-wireless-24-filled">
<g id="Vector">
<mask id="path-1-inside-1_88_1135" fill="white">
<path d="M57.6665 30C57.6665 45.4644 45.1309 58 29.6665 58C14.2021 58 1.6665 45.4644 1.6665 30C1.6665 14.5356 14.2021 2 29.6665 2C45.1309 2 57.6665 14.5356 57.6665 30ZM36.2269 13.7824C35.7943 13.4077 35.2411 13.2014 34.6687 13.2014C34.0963 13.2014 33.5431 13.4077 33.1105 13.7824C32.908 13.9569 32.7455 14.1731 32.6341 14.4162C32.5227 14.6592 32.465 14.9234 32.465 15.1908C32.465 15.4582 32.5227 15.7224 32.6341 15.9654C32.7455 16.2085 32.908 16.4247 33.1105 16.5992C41.2949 23.9996 41.2949 35.9976 33.1105 43.398C32.908 43.5725 32.7455 43.7887 32.6341 44.0318C32.5227 44.2748 32.465 44.539 32.465 44.8064C32.465 45.0738 32.5227 45.338 32.6341 45.581C32.7455 45.8241 32.908 46.0403 33.1105 46.2148C33.5431 46.5895 34.0963 46.7958 34.6687 46.7958C35.2411 46.7958 35.7943 46.5895 36.2269 46.2148C46.1333 37.2604 46.1333 22.7396 36.2269 13.7824ZM24.6741 18.0216C24.2841 18.4238 24.066 18.9621 24.066 19.5224C24.066 20.0827 24.2841 20.621 24.6741 21.0232C29.5293 25.982 29.5293 34.0236 24.6741 38.9852C24.2841 39.3874 24.066 39.9257 24.066 40.486C24.066 41.0463 24.2841 41.5846 24.6741 41.9868C24.8647 42.1841 25.0931 42.341 25.3457 42.4482C25.5982 42.5553 25.8698 42.6106 26.1441 42.6106C26.4184 42.6106 26.69 42.5553 26.9425 42.4482C27.1951 42.341 27.4235 42.1841 27.6141 41.9868C34.0905 35.3676 34.0905 24.638 27.6141 18.0216C27.4235 17.8243 27.1951 17.6674 26.9425 17.5602C26.69 17.4531 26.4184 17.3978 26.1441 17.3978C25.8698 17.3978 25.5982 17.4531 25.3457 17.5602C25.0931 17.6674 24.8647 17.8243 24.6741 18.0216ZM19.3121 22.2048C18.9056 21.8155 18.3644 21.5981 17.8015 21.5981C17.2386 21.5981 16.6974 21.8155 16.2909 22.2048C16.0935 22.3931 15.9364 22.6194 15.8291 22.8702C15.7217 23.1209 15.6664 23.3908 15.6664 23.6636C15.6664 23.9364 15.7217 24.2063 15.8291 24.457C15.9364 24.7078 16.0935 24.9341 16.2909 25.1224C16.9516 25.7511 17.4776 26.5076 17.8371 27.3458C18.1965 28.184 18.3819 29.0866 18.3819 29.9986C18.3819 30.9106 18.1965 31.8132 17.8371 32.6514C17.4776 33.4896 16.9516 34.2461 16.2909 34.8748C16.0931 35.0631 15.9356 35.2896 15.828 35.5406C15.7204 35.7916 15.6649 36.0619 15.6649 36.335C15.6649 36.6081 15.7204 36.8784 15.828 37.1294C15.9356 37.3804 16.0931 37.6069 16.2909 37.7952C16.6976 38.1854 17.2393 38.4032 17.8029 38.4032C18.3665 38.4032 18.9082 38.1854 19.3149 37.7952C20.3711 36.7901 21.2121 35.5809 21.7867 34.2409C22.3614 32.9008 22.6577 31.458 22.6577 30C22.6577 28.542 22.3614 27.0992 21.7867 25.7591C21.2121 24.4191 20.3711 23.2099 19.3149 22.2048"/>
</mask>
<path d="M36.2269 13.7824L37.2329 12.6698L37.2211 12.659L37.209 12.6486L36.2269 13.7824ZM33.1105 13.7824L34.0897 14.9187L34.0926 14.9162L33.1105 13.7824ZM33.1105 16.5992L34.1165 15.4866L34.1033 15.4746L34.0897 15.4629L33.1105 16.5992ZM33.1105 43.398L34.0897 44.5343L34.1033 44.5226L34.1165 44.5106L33.1105 43.398ZM33.1105 46.2148L34.0926 45.081L34.0897 45.0785L33.1105 46.2148ZM36.2269 46.2148L37.209 47.3486L37.221 47.3382L37.2327 47.3276L36.2269 46.2148ZM24.6741 18.0216L25.751 19.0658L25.7529 19.0638L24.6741 18.0216ZM24.6741 21.0232L23.5972 22.0674L23.6023 22.0726L24.6741 21.0232ZM24.6741 38.9852L23.602 37.9361L23.5972 37.941L24.6741 38.9852ZM24.6741 41.9868L25.7529 40.9446L25.751 40.9426L24.6741 41.9868ZM26.1441 42.6106V41.1106V42.6106ZM27.6141 41.9868L26.5419 40.9377L26.5353 40.9446L27.6141 41.9868ZM27.6141 18.0216L26.5353 19.0639L26.5422 19.0709L27.6141 18.0216ZM17.8015 21.5981V20.0981V21.5981ZM16.2909 22.2048L17.3262 23.2902L17.3284 23.2881L16.2909 22.2048ZM16.2909 25.1224L15.2556 26.2078L15.2569 26.209L16.2909 25.1224ZM16.2909 34.8748L15.2569 33.7882L15.2567 33.7883L16.2909 34.8748ZM15.6649 36.335H17.1649H15.6649ZM16.2909 37.7952L17.3294 36.7128L17.3251 36.7087L16.2909 37.7952ZM17.8029 38.4032V39.9032V38.4032ZM19.3149 37.7952L18.2809 36.7085L18.2764 36.7128L19.3149 37.7952ZM57.6665 30H56.1665C56.1665 44.636 44.3025 56.5 29.6665 56.5V58V59.5C45.9593 59.5 59.1665 46.2928 59.1665 30H57.6665ZM29.6665 58V56.5C15.0305 56.5 3.1665 44.636 3.1665 30H1.6665H0.166504C0.166504 46.2928 13.3737 59.5 29.6665 59.5V58ZM1.6665 30H3.1665C3.1665 15.364 15.0305 3.5 29.6665 3.5V2V0.5C13.3737 0.5 0.166504 13.7072 0.166504 30H1.6665ZM29.6665 2V3.5C44.3025 3.5 56.1665 15.364 56.1665 30H57.6665H59.1665C59.1665 13.7072 45.9593 0.5 29.6665 0.5V2ZM36.2269 13.7824L37.209 12.6486C36.5037 12.0377 35.6018 11.7014 34.6687 11.7014V13.2014V14.7014C34.8803 14.7014 35.0849 14.7777 35.2448 14.9162L36.2269 13.7824ZM34.6687 13.2014V11.7014C33.7356 11.7014 32.8338 12.0377 32.1284 12.6486L33.1105 13.7824L34.0926 14.9162C34.2525 14.7777 34.4571 14.7014 34.6687 14.7014V13.2014ZM33.1105 13.7824L32.1313 12.6461C31.7654 12.9615 31.4717 13.352 31.2705 13.7912L32.6341 14.4162L33.9977 15.0411C34.0192 14.9942 34.0506 14.9524 34.0897 14.9187L33.1105 13.7824ZM32.6341 14.4162L31.2705 13.7912C31.0692 14.2303 30.965 14.7077 30.965 15.1908H32.465H33.965C33.965 15.1391 33.9761 15.0881 33.9977 15.0411L32.6341 14.4162ZM32.465 15.1908H30.965C30.965 15.6739 31.0692 16.1513 31.2705 16.5904L32.6341 15.9654L33.9977 15.3405C33.9761 15.2935 33.965 15.2425 33.965 15.1908H32.465ZM32.6341 15.9654L31.2705 16.5904C31.4717 17.0296 31.7653 17.4201 32.1313 17.7355L33.1105 16.5992L34.0897 15.4629C34.0506 15.4292 34.0192 15.3874 33.9977 15.3405L32.6341 15.9654ZM33.1105 16.5992L32.1045 17.7118C39.6302 24.5167 39.6302 35.4805 32.1045 42.2854L33.1105 43.398L34.1165 44.5106C42.9596 36.5147 42.9596 23.4825 34.1165 15.4866L33.1105 16.5992ZM33.1105 43.398L32.1313 42.2617C31.7653 42.5771 31.4717 42.9676 31.2705 43.4068L32.6341 44.0318L33.9977 44.6567C34.0192 44.6098 34.0506 44.568 34.0897 44.5343L33.1105 43.398ZM32.6341 44.0318L31.2705 43.4068C31.0692 43.8459 30.965 44.3233 30.965 44.8064H32.465H33.965C33.965 44.7547 33.9761 44.7037 33.9977 44.6567L32.6341 44.0318ZM32.465 44.8064H30.965C30.965 45.2895 31.0692 45.7669 31.2705 46.206L32.6341 45.581L33.9977 44.9561C33.9761 44.9091 33.965 44.858 33.965 44.8064H32.465ZM32.6341 45.581L31.2705 46.206C31.4717 46.6452 31.7653 47.0357 32.1313 47.3511L33.1105 46.2148L34.0897 45.0785C34.0506 45.0448 34.0192 45.003 33.9977 44.9561L32.6341 45.581ZM33.1105 46.2148L32.1284 47.3486C32.8338 47.9595 33.7356 48.2958 34.6687 48.2958V46.7958V45.2958C34.4571 45.2958 34.2525 45.2195 34.0926 45.081L33.1105 46.2148ZM34.6687 46.7958V48.2958C35.6018 48.2958 36.5036 47.9595 37.209 47.3486L36.2269 46.2148L35.2448 45.081C35.0849 45.2195 34.8803 45.2958 34.6687 45.2958V46.7958ZM36.2269 46.2148L37.2327 47.3276C47.7981 37.7775 47.7979 22.2224 37.2329 12.6698L36.2269 13.7824L35.2209 14.895C44.4687 23.2568 44.4685 36.7433 35.2211 45.102L36.2269 46.2148ZM24.6741 18.0216L23.5972 16.9774C22.9358 17.6595 22.566 18.5723 22.566 19.5224H24.066H25.566C25.566 19.3519 25.6323 19.1881 25.751 19.0658L24.6741 18.0216ZM24.066 19.5224H22.566C22.566 20.4725 22.9358 21.3853 23.5972 22.0674L24.6741 21.0232L25.751 19.979C25.6323 19.8567 25.566 19.6929 25.566 19.5224H24.066ZM24.6741 21.0232L23.6023 22.0726C27.8864 26.4481 27.8868 33.5574 23.602 37.9361L24.6741 38.9852L25.7462 40.0343C31.1718 34.4898 31.1722 25.5159 25.7459 19.9738L24.6741 21.0232ZM24.6741 38.9852L23.5972 37.941C22.9358 38.6231 22.566 39.5359 22.566 40.486H24.066H25.566C25.566 40.3155 25.6323 40.1517 25.751 40.0294L24.6741 38.9852ZM24.066 40.486H22.566C22.566 41.4361 22.9358 42.3489 23.5972 43.031L24.6741 41.9868L25.751 40.9426C25.6323 40.8203 25.566 40.6565 25.566 40.486H24.066ZM24.6741 41.9868L23.5953 43.029C23.9258 43.3711 24.3218 43.6432 24.7597 43.829L25.3457 42.4482L25.9316 41.0674C25.8644 41.0388 25.8036 40.9971 25.7529 40.9446L24.6741 41.9868ZM25.3457 42.4482L24.7597 43.829C25.1976 44.0148 25.6684 44.1106 26.1441 44.1106V42.6106V41.1106C26.0711 41.1106 25.9988 41.0959 25.9316 41.0674L25.3457 42.4482ZM26.1441 42.6106V44.1106C26.6198 44.1106 27.0906 44.0148 27.5285 43.829L26.9425 42.4482L26.3566 41.0674C26.2894 41.0959 26.2171 41.1106 26.1441 41.1106V42.6106ZM26.9425 42.4482L27.5285 43.829C27.9664 43.6432 28.3624 43.3711 28.6929 43.029L27.6141 41.9868L26.5353 40.9446C26.4846 40.9971 26.4238 41.0388 26.3566 41.0674L26.9425 42.4482ZM27.6141 41.9868L28.6863 43.0358C35.733 35.8337 35.7333 24.1719 28.686 16.9723L27.6141 18.0216L26.5422 19.0709C32.4477 25.1041 32.448 34.9015 26.5419 40.9378L27.6141 41.9868ZM27.6141 18.0216L28.6929 16.9794C28.3624 16.6373 27.9664 16.3652 27.5285 16.1794L26.9425 17.5602L26.3566 18.941C26.4238 18.9696 26.4846 19.0113 26.5353 19.0638L27.6141 18.0216ZM26.9425 17.5602L27.5285 16.1794C27.0906 15.9936 26.6198 15.8978 26.1441 15.8978V17.3978V18.8978C26.2171 18.8978 26.2894 18.9125 26.3566 18.941L26.9425 17.5602ZM26.1441 17.3978V15.8978C25.6684 15.8978 25.1976 15.9936 24.7597 16.1794L25.3457 17.5602L25.9316 18.941C25.9988 18.9125 26.0711 18.8978 26.1441 18.8978V17.3978ZM25.3457 17.5602L24.7597 16.1794C24.3218 16.3652 23.9258 16.6373 23.5953 16.9794L24.6741 18.0216L25.7529 19.0638C25.8036 19.0113 25.8644 18.9696 25.9316 18.941L25.3457 17.5602ZM19.3121 22.2048L20.3496 21.1215C19.6639 20.4647 18.751 20.0981 17.8015 20.0981V21.5981V23.0981C17.9778 23.0981 18.1473 23.1662 18.2746 23.2881L19.3121 22.2048ZM17.8015 21.5981V20.0981C16.852 20.0981 15.9392 20.4647 15.2534 21.1215L16.2909 22.2048L17.3284 23.2881C17.4557 23.1662 17.6252 23.0981 17.8015 23.0981V21.5981ZM16.2909 22.2048L15.2556 21.1194C14.9114 21.4477 14.6373 21.8425 14.4501 22.2798L15.8291 22.8702L17.208 23.4605C17.2355 23.3963 17.2757 23.3384 17.3262 23.2902L16.2909 22.2048ZM15.8291 22.8702L14.4501 22.2798C14.2629 22.7171 14.1664 23.1879 14.1664 23.6636H15.6664H17.1664C17.1664 23.5938 17.1805 23.5247 17.208 23.4605L15.8291 22.8702ZM15.6664 23.6636H14.1664C14.1664 24.1393 14.2629 24.6101 14.4501 25.0474L15.8291 24.457L17.208 23.8667C17.1805 23.8025 17.1664 23.7334 17.1664 23.6636H15.6664ZM15.8291 24.457L14.4501 25.0474C14.6373 25.4847 14.9114 25.8795 15.2556 26.2078L16.2909 25.1224L17.3262 24.037C17.2757 23.9888 17.2355 23.9309 17.208 23.8667L15.8291 24.457ZM16.2909 25.1224L15.2569 26.209C15.7703 26.6976 16.1791 27.2855 16.4585 27.937L17.8371 27.3458L19.2157 26.7546C18.7761 25.7296 18.1329 24.8046 17.3249 24.0358L16.2909 25.1224ZM17.8371 27.3458L16.4585 27.937C16.7378 28.5884 16.8819 29.2898 16.8819 29.9986H18.3819H19.8819C19.8819 28.8833 19.6552 27.7797 19.2157 26.7546L17.8371 27.3458ZM18.3819 29.9986H16.8819C16.8819 30.7074 16.7378 31.4088 16.4585 32.0602L17.8371 32.6514L19.2157 33.2426C19.6552 32.2175 19.8819 31.1139 19.8819 29.9986H18.3819ZM17.8371 32.6514L16.4585 32.0602C16.1791 32.7117 15.7703 33.2996 15.2569 33.7882L16.2909 34.8748L17.3249 35.9614C18.1329 35.1926 18.7761 34.2676 19.2157 33.2426L17.8371 32.6514ZM16.2909 34.8748L15.2567 33.7883C14.9117 34.1167 14.637 34.5118 14.4493 34.9496L15.828 35.5406L17.2066 36.1317C17.2342 36.0674 17.2745 36.0095 17.3251 35.9613L16.2909 34.8748ZM15.828 35.5406L14.4493 34.9496C14.2617 35.3874 14.1649 35.8587 14.1649 36.335H15.6649H17.1649C17.1649 36.2651 17.1791 36.1959 17.2066 36.1317L15.828 35.5406ZM15.6649 36.335H14.1649C14.1649 36.8113 14.2617 37.2826 14.4493 37.7204L15.828 37.1294L17.2066 36.5383C17.1791 36.4741 17.1649 36.4049 17.1649 36.335H15.6649ZM15.828 37.1294L14.4493 37.7204C14.637 38.1582 14.9117 38.5533 15.2567 38.8817L16.2909 37.7952L17.3251 36.7087C17.2745 36.6605 17.2342 36.6026 17.2066 36.5383L15.828 37.1294ZM16.2909 37.7952L15.2524 38.8776C15.9384 39.5357 16.8523 39.9032 17.8029 39.9032V38.4032V36.9032C17.6264 36.9032 17.4567 36.835 17.3294 36.7128L16.2909 37.7952ZM17.8029 38.4032V39.9032C18.7535 39.9032 19.6674 39.5357 20.3534 38.8776L19.3149 37.7952L18.2764 36.7128C18.1491 36.835 17.9794 36.9032 17.8029 36.9032V38.4032ZM19.3149 37.7952L20.3489 38.8819C21.5524 37.7367 22.5106 36.3588 23.1653 34.832L21.7867 34.2409L20.4082 33.6497C19.9136 34.8029 19.1899 35.8436 18.2809 36.7085L19.3149 37.7952ZM21.7867 34.2409L23.1653 34.832C23.8201 33.3052 24.1577 31.6613 24.1577 30H22.6577H21.1577C21.1577 31.2548 20.9027 32.4965 20.4082 33.6497L21.7867 34.2409ZM22.6577 30H24.1577C24.1577 28.3387 23.8201 26.6948 23.1653 25.168L21.7867 25.7591L20.4082 26.3503C20.9027 27.5035 21.1577 28.7452 21.1577 30H22.6577ZM21.7867 25.7591L23.1653 25.168C22.5106 23.6412 21.5524 22.2633 20.3489 21.1181L19.3149 22.2048L18.2809 23.2915C19.1899 24.1564 19.9136 25.1971 20.4082 26.3503L21.7867 25.7591Z" fill="#402F9E" mask="url(#path-1-inside-1_88_1135)"/>
</g>
</g>
</svg>
