<svg width="86" height="26" viewBox="0 0 86 26" fill="none" xmlns="http://www.w3.org/2000/svg">
<g id="logo_IPASS 1" clip-path="url(#clip0_88_894)">
<path id="Vector" d="M0 0.390251H23.5433C23.9914 0.385446 24.4238 0.532447 24.7465 0.799418C25.0692 1.0664 25.2563 1.4318 25.2672 1.81639V14.224C25.2808 14.4214 25.2456 14.619 25.1637 14.8038C25.0819 14.9886 24.9554 15.1564 24.7925 15.2962C24.6296 15.436 24.4341 15.5446 24.2188 15.6148C24.0034 15.685 23.7732 15.7153 23.5433 15.7036H17.3121V25.3481H9.00399V11.1755H17.3121V5.14117H0V0.390251Z" fill="#505050"/>
<path id="Vector_2" d="M7.16581 6.09473H0V10.195H7.16581V6.09473Z" fill="#505050"/>
<path id="Vector_3" d="M7.16581 11.1665H0V25.339H7.16581V11.1665Z" fill="#505050"/>
<path id="Vector_4" d="M43.3063 6.62959H30.0236C28.4554 6.62959 27.6973 7.44074 27.6973 8.31427V12.0401H35.4239V10.9438H37.906V13.8049H30.0236C29.7307 13.7745 29.4335 13.7981 29.152 13.874C28.8705 13.9498 28.6111 14.0763 28.391 14.2449C28.1709 14.4137 27.9952 14.6206 27.8756 14.8522C27.756 15.0837 27.6952 15.3344 27.6973 15.5876V23.5653C27.6952 23.8185 27.756 24.0692 27.8756 24.3007C27.9952 24.5322 28.1709 24.7392 28.391 24.9079C28.6111 25.0766 28.8705 25.2031 29.152 25.2789C29.4335 25.3548 29.7307 25.3783 30.0236 25.348H45.4768V8.33206C45.4797 8.09388 45.424 7.85797 45.3134 7.63957C45.2028 7.4211 45.0397 7.22514 44.8349 7.06449C44.63 6.90384 44.388 6.78206 44.1246 6.70712C43.8612 6.63218 43.5824 6.60577 43.3063 6.62959ZM37.906 20.9358H35.4239V18.2171H37.906V20.9358Z" fill="#505050"/>
<path id="Vector_5" d="M49.766 6.62955H63.516C63.7914 6.61264 64.068 6.64299 64.3295 6.71888C64.591 6.79477 64.8323 6.91469 65.0392 7.07151C65.2462 7.2284 65.4146 7.41902 65.5346 7.63243C65.6547 7.84577 65.7239 8.07758 65.7384 8.31418V12.04H58.0118V10.9437H55.5817V13.8049H63.516C63.7815 13.7765 64.051 13.7944 64.3083 13.8578C64.5655 13.9211 64.8052 14.0285 65.0128 14.1733C65.2204 14.3183 65.3917 14.4977 65.5165 14.7009C65.6412 14.9042 65.7167 15.1269 65.7384 15.3559V23.378C65.7597 23.6399 65.7156 23.9026 65.6091 24.1487C65.5026 24.3948 65.3361 24.6184 65.1209 24.8049C64.9056 24.9913 64.6465 25.1362 64.3608 25.2299C64.0751 25.3235 63.7694 25.3637 63.4641 25.3479H50.2333C49.9404 25.3783 49.6433 25.3548 49.3618 25.2789C49.0802 25.203 48.8208 25.0766 48.6007 24.9079C48.3806 24.7392 48.2048 24.5322 48.0853 24.3007C47.9656 24.0692 47.9049 23.8185 47.907 23.5652V19.8215H55.5817V20.9535H58.0118V18.2171H50.0256C49.746 18.2406 49.4638 18.2107 49.1994 18.1295C48.9349 18.0482 48.6948 17.9176 48.4961 17.7472C48.2975 17.5767 48.1453 17.3705 48.0507 17.1435C47.956 16.9165 47.9211 16.6743 47.9486 16.4344V8.41223C47.9015 8.18828 47.9138 7.95811 47.9846 7.73883C48.0554 7.51954 48.1827 7.31674 48.3574 7.14548C48.5319 6.97422 48.7493 6.83888 48.9931 6.74956C49.237 6.66025 49.5011 6.61924 49.766 6.62955Z" fill="#505050"/>
<path id="Vector_6" d="M70.0277 6.62955H83.778C84.0533 6.61264 84.3301 6.64299 84.5915 6.71888C84.853 6.79477 85.0943 6.91469 85.301 7.07151C85.5077 7.2284 85.6762 7.41902 85.7962 7.63243C85.9162 7.84577 85.9856 8.07758 86.0001 8.31418V12.04H78.2837V10.9437H75.8438V13.8049H83.778C84.0436 13.7765 84.3127 13.7944 84.57 13.8578C84.8273 13.9211 85.0673 14.0285 85.2747 14.1733C85.482 14.3183 85.6533 14.4977 85.7782 14.7009C85.903 14.9042 85.9786 15.1269 86.0001 15.3559V23.378C86.0237 23.6446 85.98 23.9124 85.8711 24.163C85.7622 24.4134 85.5916 24.6407 85.3697 24.829C85.1484 25.0171 84.8828 25.1618 84.5894 25.253C84.2968 25.3441 83.9847 25.3796 83.674 25.3568H70.5056C70.2129 25.3872 69.9153 25.3637 69.6338 25.2878C69.3525 25.212 69.093 25.0855 68.8729 24.9168C68.6527 24.7482 68.4771 24.5411 68.3574 24.3096C68.2379 24.0781 68.1771 23.8274 68.1793 23.5741V19.8215H75.8438V20.9535H78.2837V18.2171H70.2871C70.0076 18.2423 69.7246 18.2135 69.459 18.1329C69.1937 18.0522 68.9527 17.9217 68.7537 17.7508C68.5546 17.58 68.4025 17.3731 68.3085 17.1454C68.2146 16.9176 68.181 16.6747 68.2104 16.4344V8.41222C68.1613 8.18808 68.1721 7.95722 68.2421 7.73718C68.3121 7.51707 68.4393 7.31352 68.6144 7.14185C68.7894 6.97018 69.0076 6.83489 69.2525 6.74613C69.4971 6.65738 69.7621 6.61752 70.0277 6.62955Z" fill="#505050"/>
</g>
<defs>
<clipPath id="clip0_88_894">
<rect width="86" height="26" fill="white"/>
</clipPath>
</defs>
</svg>
