<svg width="126" height="39" viewBox="0 0 126 39" fill="none" xmlns="http://www.w3.org/2000/svg">
<g id="logo_IPASS 1" clip-path="url(#clip0_88_553)">
<path id="Vector" d="M0 1.0703H34.4936C35.1502 1.06327 35.7837 1.27812 36.2565 1.66831C36.7293 2.05851 37.0035 2.59256 37.0194 3.15465V21.2889C37.0393 21.5773 36.9877 21.8661 36.8678 22.1362C36.7479 22.4063 36.5626 22.6516 36.324 22.8559C36.0853 23.0602 35.7987 23.2189 35.4833 23.3216C35.1678 23.4242 34.8306 23.4685 34.4936 23.4514H25.3643V37.5471H13.1919V16.8334H25.3643V8.01394H0V1.0703Z" fill="#402F9E"/>
<path id="Vector_2" d="M10.4987 9.40784H0V15.4005H10.4987V9.40784Z" fill="#402F9E"/>
<path id="Vector_3" d="M10.4987 16.8204H0V37.534H10.4987V16.8204Z" fill="#402F9E"/>
<path id="Vector_4" d="M63.4487 10.1895H43.988C41.6904 10.1895 40.5797 11.375 40.5797 12.6517V18.0971H51.9001V16.4948H55.5366V20.6765H43.988C43.5588 20.6321 43.1234 20.6665 42.711 20.7774C42.2986 20.8883 41.9184 21.0731 41.596 21.3196C41.2735 21.5662 41.0161 21.8687 40.8408 22.2071C40.6656 22.5455 40.5765 22.9119 40.5797 23.282V34.9416C40.5765 35.3117 40.6656 35.6782 40.8408 36.0165C41.0161 36.3549 41.2735 36.6574 41.596 36.904C41.9184 37.1505 42.2986 37.3354 42.711 37.4462C43.1234 37.5571 43.5588 37.5915 43.988 37.5471H66.6287V12.6777C66.6329 12.3296 66.5513 11.9848 66.3892 11.6656C66.2272 11.3463 65.9883 11.0599 65.6882 10.8251C65.3881 10.5903 65.0335 10.4123 64.6476 10.3028C64.2617 10.1933 63.8532 10.1547 63.4487 10.1895ZM55.5366 31.0985H51.9001V27.1251H55.5366V31.0985Z" fill="#402F9E"/>
<path id="Vector_5" d="M72.9131 10.1894H93.0585C93.4619 10.1647 93.8672 10.2091 94.2504 10.32C94.6335 10.4309 94.9869 10.6062 95.2902 10.8354C95.5934 11.0647 95.8401 11.3433 96.016 11.6552C96.1919 11.967 96.2934 12.3058 96.3146 12.6516V18.0971H84.9942V16.4948H81.4338V20.6765H93.0585C93.4475 20.635 93.8424 20.6612 94.2193 20.7538C94.5961 20.8463 94.9473 21.0033 95.2514 21.215C95.5557 21.4268 95.8067 21.6891 95.9895 21.9861C96.1722 22.2831 96.2827 22.6087 96.3146 22.9433V34.6679C96.3457 35.0507 96.2812 35.4347 96.1251 35.7943C95.9691 36.154 95.7252 36.4809 95.4099 36.7534C95.0944 37.0259 94.7148 37.2377 94.2962 37.3746C93.8776 37.5114 93.4297 37.5702 92.9824 37.547H73.5978C73.1686 37.5915 72.7333 37.5571 72.3209 37.4462C71.9084 37.3353 71.5283 37.1505 71.2058 36.9039C70.8833 36.6574 70.6259 36.3549 70.4507 36.0165C70.2754 35.6781 70.1864 35.3117 70.1895 34.9415V29.47H81.4338V31.1245H84.9942V27.1251H73.2935C72.8839 27.1595 72.4704 27.1158 72.083 26.997C71.6955 26.8782 71.3436 26.6874 71.0526 26.4383C70.7616 26.1891 70.5387 25.8877 70.4 25.556C70.2613 25.2242 70.2102 24.8703 70.2504 24.5196V12.7949C70.1814 12.4676 70.1995 12.1312 70.3031 11.8107C70.4069 11.4902 70.5934 11.1938 70.8493 10.9435C71.1051 10.6932 71.4235 10.4954 71.7808 10.3648C72.1381 10.2343 72.525 10.1744 72.9131 10.1894Z" fill="#402F9E"/>
<path id="Vector_6" d="M102.599 10.1894H122.744C123.148 10.1647 123.553 10.2091 123.936 10.32C124.319 10.4309 124.673 10.6062 124.976 10.8354C125.279 11.0647 125.526 11.3433 125.701 11.6552C125.877 11.967 125.979 12.3058 126 12.6516V18.0971H114.695V16.4948H111.12V20.6765H122.744C123.134 20.635 123.528 20.6612 123.905 20.7538C124.282 20.8463 124.633 21.0033 124.937 21.215C125.241 21.4268 125.492 21.6891 125.675 21.9861C125.858 22.2831 125.969 22.6087 126 22.9433V34.6679C126.035 35.0576 125.971 35.449 125.811 35.8152C125.652 36.1813 125.402 36.5135 125.076 36.7886C124.752 37.0636 124.363 37.2751 123.933 37.4083C123.504 37.5415 123.047 37.5933 122.592 37.5601H103.299C102.87 37.6045 102.434 37.5701 102.021 37.4592C101.609 37.3484 101.229 37.1635 100.907 36.917C100.584 36.6705 100.327 36.3679 100.152 36.0295C99.9763 35.6912 99.8873 35.3247 99.8905 34.9546V29.47H111.12V31.1245H114.695V27.1251H102.979C102.569 27.1619 102.155 27.1199 101.765 27.002C101.377 26.8841 101.024 26.6933 100.732 26.4436C100.44 26.1939 100.218 25.8916 100.08 25.5587C99.9422 25.2258 99.893 24.8708 99.9361 24.5196V12.7949C99.8641 12.4673 99.88 12.1299 99.9825 11.8083C100.085 11.4866 100.272 11.1891 100.528 10.9382C100.784 10.6873 101.104 10.4896 101.463 10.3598C101.821 10.2301 102.209 10.1719 102.599 10.1894Z" fill="#402F9E"/>
</g>
<defs>
<clipPath id="clip0_88_553">
<rect width="126" height="38" fill="white" transform="translate(0 0.5)"/>
</clipPath>
</defs>
</svg>
