<svg width="124" height="38" viewBox="0 0 124 38" fill="none" xmlns="http://www.w3.org/2000/svg">
<path d="M0 0.570296H33.9461C34.5923 0.563273 35.2157 0.778121 35.681 1.16831C36.1463 1.55851 36.4161 2.09256 36.4318 2.65465V20.7889C36.4514 21.0773 36.4006 21.3661 36.2826 21.6362C36.1646 21.9063 35.9822 22.1516 35.7474 22.3559C35.5125 22.5602 35.2305 22.7189 34.9201 22.8216C34.6096 22.9242 34.2777 22.9685 33.9461 22.9514H24.9617V37.0471H12.9825V16.3334H24.9617V7.51394H0V0.570296Z" fill="white"/>
<path d="M10.3321 8.90784H0V14.9005H10.3321V8.90784Z" fill="white"/>
<path d="M10.3321 16.3204H0V37.034H10.3321V16.3204Z" fill="white"/>
<path d="M62.4416 9.68948H43.2898C41.0287 9.68948 39.9356 10.875 39.9356 12.1517V17.5971H51.0763V15.9948H54.6551V20.1765H43.2898C42.8674 20.1321 42.439 20.1665 42.0331 20.2774C41.6272 20.3883 41.2531 20.5731 40.9358 20.8196C40.6184 21.0662 40.3651 21.3687 40.1926 21.7071C40.0202 22.0455 39.9325 22.4119 39.9356 22.782V34.4416C39.9325 34.8117 40.0202 35.1782 40.1926 35.5165C40.3651 35.8549 40.6184 36.1574 40.9358 36.404C41.2531 36.6505 41.6272 36.8354 42.0331 36.9462C42.439 37.0571 42.8674 37.0915 43.2898 37.0471H65.5712V12.1777C65.5753 11.8296 65.495 11.4848 65.3355 11.1656C65.176 10.8463 64.9409 10.5599 64.6456 10.3251C64.3502 10.0903 64.0013 9.91232 63.6215 9.80279C63.2417 9.69326 62.8397 9.65466 62.4416 9.68948ZM54.6551 30.5985H51.0763V26.6251H54.6551V30.5985Z" fill="white"/>
<path d="M71.7556 9.68945H91.5813C91.9783 9.66473 92.3771 9.7091 92.7542 9.82001C93.1313 9.93092 93.4791 10.1062 93.7775 10.3354C94.0759 10.5647 94.3187 10.8433 94.4918 11.1552C94.6649 11.467 94.7648 11.8058 94.7857 12.1516V17.5971H83.645V15.9948H80.1411V20.1765H91.5813C91.9641 20.135 92.3527 20.1612 92.7236 20.2538C93.0945 20.3463 93.4401 20.5033 93.7394 20.715C94.0388 20.9268 94.2858 21.1891 94.4657 21.4861C94.6455 21.7831 94.7543 22.1087 94.7857 22.4433V34.1679C94.8163 34.5507 94.7528 34.9347 94.5992 35.2943C94.4457 35.654 94.2056 35.9809 93.8953 36.2534C93.5849 36.5259 93.2113 36.7377 92.7993 36.8746C92.3874 37.0114 91.9466 37.0702 91.5064 37.047H72.4295C72.0071 37.0915 71.5787 37.0571 71.1728 36.9462C70.7669 36.8353 70.3928 36.6505 70.0754 36.4039C69.7581 36.1574 69.5047 35.8549 69.3323 35.5165C69.1598 35.1781 69.0722 34.8117 69.0753 34.4415V28.97H80.1411V30.6245H83.645V26.6251H72.13C71.7269 26.6595 71.32 26.6158 70.9387 26.497C70.5574 26.3782 70.2111 26.1874 69.9247 25.9383C69.6383 25.6891 69.4189 25.3877 69.2824 25.056C69.1459 24.7242 69.0956 24.3703 69.1352 24.0196V12.2949C69.0673 11.9676 69.0851 11.6312 69.1871 11.3107C69.2892 10.9902 69.4728 10.6938 69.7246 10.4435C69.9763 10.1932 70.2897 9.99539 70.6413 9.86485C70.9929 9.73432 71.3737 9.67438 71.7556 9.68945Z" fill="white"/>
<path d="M100.97 9.68945H120.796C121.193 9.66473 121.592 9.7091 121.969 9.82001C122.346 9.93092 122.694 10.1062 122.992 10.3354C123.29 10.5647 123.533 10.8433 123.706 11.1552C123.879 11.467 123.979 11.8058 124 12.1516V17.5971H112.874V15.9948H109.356V20.1765H120.796C121.179 20.135 121.567 20.1612 121.938 20.2538C122.309 20.3463 122.655 20.5033 122.954 20.715C123.253 20.9268 123.5 21.1891 123.68 21.4861C123.86 21.7831 123.969 22.1087 124 22.4433V34.1679C124.034 34.5576 123.971 34.949 123.814 35.3152C123.657 35.6813 123.411 36.0135 123.091 36.2886C122.772 36.5636 122.389 36.7751 121.966 36.9083C121.544 37.0415 121.094 37.0933 120.646 37.0601H101.659C101.237 37.1045 100.808 37.0701 100.402 36.9592C99.9964 36.8484 99.6223 36.6635 99.3049 36.417C98.9875 36.1705 98.7342 35.8679 98.5617 35.5295C98.3893 35.1912 98.3017 34.8247 98.3048 34.4546V28.97H109.356V30.6245H112.874V26.6251H101.344C100.941 26.6619 100.533 26.6199 100.15 26.502C99.7675 26.3841 99.42 26.1933 99.133 25.9436C98.846 25.6939 98.6267 25.3916 98.4912 25.0587C98.3557 24.7258 98.3073 24.3708 98.3497 24.0196V12.2949C98.2789 11.9673 98.2945 11.6299 98.3954 11.3083C98.4963 10.9866 98.6798 10.6891 98.9322 10.4382C99.1845 10.1873 99.4991 9.98956 99.8522 9.85984C100.205 9.73013 100.587 9.67187 100.97 9.68945Z" fill="white"/>
</svg>
